<svg width="809" height="50" viewBox="0 0 809 50" fill="none" xmlns="http://www.w3.org/2000/svg">
<path d="M0.474609 3.20898H9.76172V15.1621H38.2383V3.20898H47.5547V49H38.2383V23.1016H9.76172V49H0.474609V3.20898ZM59.4785 14.4004H68.1211V31.2754C68.1211 32.877 68.2969 34.3418 68.6484 35.6699C69 36.9785 69.5957 38.1016 70.4355 39.0391C71.2949 39.9766 72.4277 40.709 73.834 41.2363C75.2598 41.7441 77.0273 41.998 79.1367 41.998C80.1328 41.998 81.1387 41.8906 82.1543 41.6758C83.1895 41.4609 84.1758 41.168 85.1133 40.7969C86.0508 40.4062 86.9199 39.9473 87.7207 39.4199C88.541 38.8926 89.2441 38.3164 89.8301 37.6914V14.4004H98.502V49H89.8301V46.041C87.7012 47.3105 85.5625 48.2188 83.4141 48.7656C81.2656 49.3125 79.2246 49.5859 77.291 49.5859C74.127 49.5859 71.4121 49.2051 69.1465 48.4434C66.9004 47.6816 65.0547 46.5781 63.6094 45.1328C62.1836 43.668 61.1387 41.8809 60.4746 39.7715C59.8105 37.6426 59.4785 35.2207 59.4785 32.5059V14.4004ZM109.752 14.4297H118.424V17.3594C120.592 16.0313 122.701 15.1133 124.752 14.6055C126.822 14.0781 128.844 13.8145 130.816 13.8145C133.57 13.8145 136.1 14.2539 138.404 15.1328C140.709 16.0117 142.682 17.3398 144.322 19.1172C145.592 18.1406 146.842 17.3203 148.072 16.6562C149.303 15.9727 150.533 15.4258 151.764 15.0156C152.994 14.5859 154.244 14.2832 155.514 14.1074C156.783 13.9121 158.092 13.8145 159.439 13.8145C162.271 13.8145 164.84 14.2051 167.145 14.9863C169.449 15.748 171.412 16.8906 173.033 18.4141C174.674 19.9375 175.934 21.8418 176.812 24.127C177.711 26.3926 178.16 29.0195 178.16 32.0078V49H169.518V33.4141C169.518 31.5195 169.244 29.8301 168.697 28.3457C168.17 26.8418 167.418 25.582 166.441 24.5664C165.484 23.5312 164.332 22.75 162.984 22.2227C161.656 21.6758 160.191 21.4023 158.59 21.4023C157.711 21.4023 156.812 21.4902 155.895 21.666C154.977 21.8223 154.078 22.0762 153.199 22.4277C152.34 22.7793 151.529 23.2285 150.768 23.7754C150.006 24.3027 149.342 24.9277 148.775 25.6504V49H140.133V33.4141C140.133 31.5195 139.859 29.8301 139.312 28.3457C138.785 26.8418 138.033 25.582 137.057 24.5664C136.1 23.5312 134.938 22.75 133.57 22.2227C132.223 21.6758 130.738 21.4023 129.117 21.4023C128.121 21.4023 127.115 21.5098 126.1 21.7246C125.104 21.9199 124.137 22.2031 123.199 22.5742C122.281 22.9453 121.412 23.3945 120.592 23.9219C119.791 24.4492 119.068 25.0449 118.424 25.709V49H109.752V14.4297ZM187.447 38.1016C187.447 36.4414 187.809 34.9277 188.531 33.5605C189.254 32.1934 190.338 31.0215 191.783 30.0449C193.229 29.0488 195.025 28.2871 197.174 27.7598C199.342 27.2129 201.861 26.9395 204.732 26.9395C206.861 26.9395 209.098 27.0957 211.441 27.4082C213.805 27.7207 216.236 28.1992 218.736 28.8438C218.639 27.75 218.307 26.7441 217.74 25.8262C217.174 24.8887 216.383 24.0879 215.367 23.4238C214.371 22.7402 213.16 22.2129 211.734 21.8418C210.328 21.4707 208.727 21.2852 206.93 21.2852C205.953 21.2852 204.879 21.3438 203.707 21.4609C202.535 21.5781 201.324 21.7539 200.074 21.9883C198.824 22.2227 197.584 22.5156 196.354 22.8672C195.143 23.2188 194.01 23.6387 192.955 24.127L190.318 17.0078C191.627 16.5391 193.023 16.1094 194.508 15.7188C196.012 15.3281 197.545 14.9961 199.107 14.7227C200.67 14.4297 202.232 14.2051 203.795 14.0488C205.357 13.8926 206.871 13.8145 208.336 13.8145C214.801 13.8145 219.605 15.4648 222.75 18.7656C225.895 22.0664 227.467 27.125 227.467 33.9414V49H218.795V45.748C217.896 46.2754 216.91 46.7734 215.836 47.2422C214.781 47.7109 213.629 48.1211 212.379 48.4727C211.129 48.8242 209.781 49.0977 208.336 49.293C206.91 49.5078 205.396 49.6152 203.795 49.6152C201.1 49.6152 198.727 49.3223 196.676 48.7363C194.645 48.1504 192.945 47.3398 191.578 46.3047C190.211 45.2695 189.176 44.0586 188.473 42.6719C187.789 41.2656 187.447 39.7422 187.447 38.1016ZM196.588 37.8086C196.588 38.375 196.734 38.9219 197.027 39.4492C197.32 39.957 197.789 40.416 198.434 40.8262C199.078 41.2168 199.898 41.5391 200.895 41.793C201.91 42.0273 203.131 42.1445 204.557 42.1445C206.08 42.1445 207.555 42.0078 208.98 41.7344C210.406 41.4609 211.734 41.0996 212.965 40.6504C214.195 40.2012 215.309 39.6836 216.305 39.0977C217.301 38.5117 218.131 37.9062 218.795 37.2812V35.7578C217.467 35.3867 216.148 35.0742 214.84 34.8203C213.551 34.5664 212.311 34.3711 211.119 34.2344C209.947 34.0781 208.834 33.9707 207.779 33.9121C206.744 33.8535 205.836 33.8242 205.055 33.8242C203.434 33.8242 202.086 33.9316 201.012 34.1465C199.938 34.3613 199.068 34.6543 198.404 35.0254C197.74 35.377 197.271 35.7969 196.998 36.2852C196.725 36.7734 196.588 37.2812 196.588 37.8086ZM238.951 14.4297H247.623V17.3594C249.928 16.0508 252.125 15.1328 254.215 14.6055C256.324 14.0781 258.385 13.8145 260.396 13.8145C263.033 13.8145 265.475 14.2051 267.721 14.9863C269.967 15.748 271.91 16.8906 273.551 18.4141C275.191 19.9375 276.471 21.8418 277.389 24.127C278.326 26.3926 278.795 29.0195 278.795 32.0078V49H270.152V33.4141C270.152 31.5195 269.879 29.8301 269.332 28.3457C268.805 26.8418 268.033 25.582 267.018 24.5664C266.021 23.5312 264.801 22.75 263.355 22.2227C261.93 21.6758 260.328 21.4023 258.551 21.4023C257.613 21.4023 256.646 21.5 255.65 21.6953C254.674 21.8906 253.707 22.1738 252.75 22.5449C251.812 22.8965 250.904 23.3457 250.025 23.8926C249.146 24.4199 248.346 25.0254 247.623 25.709V49H238.951V14.4297ZM307.33 25.6797C307.33 22.457 307.936 19.4492 309.146 16.6562C310.357 13.8438 312.125 11.4023 314.449 9.33203C316.773 7.26172 319.625 5.63086 323.004 4.43945C326.402 3.24805 330.289 2.65234 334.664 2.65234C336.246 2.65234 337.828 2.74023 339.41 2.91602C341.012 3.07227 342.584 3.32617 344.127 3.67773C345.689 4.0293 347.203 4.47852 348.668 5.02539C350.152 5.55273 351.559 6.1875 352.887 6.92969L348.609 13.9609C347.809 13.4922 346.9 13.0723 345.885 12.7012C344.869 12.3105 343.775 11.9883 342.604 11.7344C341.451 11.4609 340.25 11.2559 339 11.1191C337.77 10.9824 336.529 10.9141 335.279 10.9141C332.389 10.9141 329.811 11.2852 327.545 12.0273C325.279 12.75 323.365 13.7754 321.803 15.1035C320.24 16.4121 319.049 17.9844 318.229 19.8203C317.408 21.6562 316.998 23.668 316.998 25.8555C316.998 28.1211 317.428 30.2012 318.287 32.0957C319.146 33.9902 320.367 35.6211 321.949 36.9883C323.531 38.3555 325.445 39.4297 327.691 40.2109C329.938 40.9727 332.447 41.3535 335.221 41.3535C337.428 41.3535 339.449 41.1094 341.285 40.6211C343.121 40.1133 344.723 39.4004 346.09 38.4824C347.457 37.5645 348.57 36.4609 349.43 35.1719C350.289 33.8633 350.855 32.3984 351.129 30.7773H335.133V23.1309H359.479V23.1602L359.508 23.1309C359.996 25.4746 360.143 27.7598 359.947 29.9863C359.771 32.1934 359.264 34.2832 358.424 36.2559C357.604 38.209 356.471 40.0059 355.025 41.6465C353.58 43.2871 351.852 44.7031 349.84 45.8945C347.828 47.0664 345.543 47.9844 342.984 48.6484C340.426 49.293 337.623 49.6152 334.576 49.6152C330.318 49.6152 326.5 48.9902 323.121 47.7402C319.762 46.4902 316.91 44.7812 314.566 42.6133C312.223 40.4453 310.426 37.9062 309.176 34.9961C307.945 32.0859 307.33 28.9805 307.33 25.6797ZM369.615 0.396484H378.287V49H369.615V0.396484ZM387.34 31.7148C387.34 29.2344 387.838 26.9102 388.834 24.7422C389.85 22.5742 391.285 20.6797 393.141 19.0586C395.016 17.4375 397.271 16.1582 399.908 15.2207C402.564 14.2832 405.543 13.8145 408.844 13.8145C412.145 13.8145 415.113 14.2832 417.75 15.2207C420.406 16.1582 422.662 17.4375 424.518 19.0586C426.393 20.6797 427.828 22.5742 428.824 24.7422C429.84 26.9102 430.348 29.2344 430.348 31.7148C430.348 34.1953 429.84 36.5195 428.824 38.6875C427.828 40.8555 426.393 42.75 424.518 44.3711C422.662 45.9922 420.406 47.2715 417.75 48.209C415.113 49.1465 412.145 49.6152 408.844 49.6152C405.543 49.6152 402.564 49.1465 399.908 48.209C397.271 47.2715 395.016 45.9922 393.141 44.3711C391.285 42.75 389.85 40.8555 388.834 38.6875C387.838 36.5195 387.34 34.1953 387.34 31.7148ZM396.451 31.7148C396.451 33.1016 396.725 34.4199 397.271 35.6699C397.838 36.9004 398.648 37.9941 399.703 38.9512C400.777 39.8887 402.076 40.6406 403.6 41.207C405.143 41.7539 406.891 42.0273 408.844 42.0273C410.797 42.0273 412.535 41.7539 414.059 41.207C415.602 40.6406 416.9 39.8887 417.955 38.9512C419.029 37.9941 419.84 36.9004 420.387 35.6699C420.953 34.4199 421.236 33.1016 421.236 31.7148C421.236 30.3281 420.953 29.0098 420.387 27.7598C419.84 26.5098 419.029 25.416 417.955 24.4785C416.9 23.5215 415.602 22.7695 414.059 22.2227C412.535 21.6562 410.797 21.373 408.844 21.373C406.891 21.373 405.143 21.6562 403.6 22.2227C402.076 22.7695 400.777 23.5215 399.703 24.4785C398.648 25.416 397.838 26.5098 397.271 27.7598C396.725 29.0098 396.451 30.3281 396.451 31.7148ZM438.873 0.396484H447.545V17.6816C448.307 17.1543 449.205 16.6562 450.24 16.1875C451.275 15.7188 452.389 15.3086 453.58 14.957C454.771 14.6055 456.002 14.332 457.271 14.1367C458.541 13.9219 459.811 13.8145 461.08 13.8145C464.01 13.8145 466.695 14.2441 469.137 15.1035C471.598 15.9629 473.707 17.1738 475.465 18.7363C477.223 20.2988 478.59 22.1738 479.566 24.3613C480.562 26.5293 481.061 28.9316 481.061 31.5684C481.061 34.3223 480.543 36.8125 479.508 39.0391C478.473 41.2461 477.037 43.1406 475.201 44.7227C473.385 46.2852 471.217 47.4961 468.697 48.3555C466.197 49.1953 463.482 49.6152 460.553 49.6152C459.303 49.6152 458.062 49.5371 456.832 49.3809C455.621 49.2246 454.449 49.0098 453.316 48.7363C452.203 48.4629 451.148 48.1406 450.152 47.7695C449.176 47.3789 448.307 46.959 447.545 46.5098V49H438.873V0.396484ZM447.545 38.1309C448.424 38.834 449.352 39.4297 450.328 39.918C451.305 40.4062 452.301 40.8066 453.316 41.1191C454.332 41.4316 455.357 41.666 456.393 41.8223C457.428 41.959 458.434 42.0273 459.41 42.0273C461.402 42.0273 463.17 41.7637 464.713 41.2363C466.275 40.6895 467.584 39.9473 468.639 39.0098C469.713 38.0723 470.533 36.9688 471.1 35.6992C471.666 34.4297 471.949 33.0527 471.949 31.5684C471.949 30.1816 471.666 28.873 471.1 27.6426C470.553 26.4121 469.752 25.3379 468.697 24.4199C467.662 23.4824 466.402 22.75 464.918 22.2227C463.453 21.6758 461.803 21.4023 459.967 21.4023C458.795 21.4023 457.623 21.5195 456.451 21.7539C455.279 21.9688 454.146 22.2812 453.053 22.6914C451.979 23.1016 450.963 23.5996 450.006 24.1855C449.068 24.7715 448.248 25.4258 447.545 26.1484V38.1309ZM487.447 38.1016C487.447 36.4414 487.809 34.9277 488.531 33.5605C489.254 32.1934 490.338 31.0215 491.783 30.0449C493.229 29.0488 495.025 28.2871 497.174 27.7598C499.342 27.2129 501.861 26.9395 504.732 26.9395C506.861 26.9395 509.098 27.0957 511.441 27.4082C513.805 27.7207 516.236 28.1992 518.736 28.8438C518.639 27.75 518.307 26.7441 517.74 25.8262C517.174 24.8887 516.383 24.0879 515.367 23.4238C514.371 22.7402 513.16 22.2129 511.734 21.8418C510.328 21.4707 508.727 21.2852 506.93 21.2852C505.953 21.2852 504.879 21.3438 503.707 21.4609C502.535 21.5781 501.324 21.7539 500.074 21.9883C498.824 22.2227 497.584 22.5156 496.354 22.8672C495.143 23.2188 494.01 23.6387 492.955 24.127L490.318 17.0078C491.627 16.5391 493.023 16.1094 494.508 15.7188C496.012 15.3281 497.545 14.9961 499.107 14.7227C500.67 14.4297 502.232 14.2051 503.795 14.0488C505.357 13.8926 506.871 13.8145 508.336 13.8145C514.801 13.8145 519.605 15.4648 522.75 18.7656C525.895 22.0664 527.467 27.125 527.467 33.9414V49H518.795V45.748C517.896 46.2754 516.91 46.7734 515.836 47.2422C514.781 47.7109 513.629 48.1211 512.379 48.4727C511.129 48.8242 509.781 49.0977 508.336 49.293C506.91 49.5078 505.396 49.6152 503.795 49.6152C501.1 49.6152 498.727 49.3223 496.676 48.7363C494.645 48.1504 492.945 47.3398 491.578 46.3047C490.211 45.2695 489.176 44.0586 488.473 42.6719C487.789 41.2656 487.447 39.7422 487.447 38.1016ZM496.588 37.8086C496.588 38.375 496.734 38.9219 497.027 39.4492C497.32 39.957 497.789 40.416 498.434 40.8262C499.078 41.2168 499.898 41.5391 500.895 41.793C501.91 42.0273 503.131 42.1445 504.557 42.1445C506.08 42.1445 507.555 42.0078 508.98 41.7344C510.406 41.4609 511.734 41.0996 512.965 40.6504C514.195 40.2012 515.309 39.6836 516.305 39.0977C517.301 38.5117 518.131 37.9062 518.795 37.2812V35.7578C517.467 35.3867 516.148 35.0742 514.84 34.8203C513.551 34.5664 512.311 34.3711 511.119 34.2344C509.947 34.0781 508.834 33.9707 507.779 33.9121C506.744 33.8535 505.836 33.8242 505.055 33.8242C503.434 33.8242 502.086 33.9316 501.012 34.1465C499.938 34.3613 499.068 34.6543 498.404 35.0254C497.74 35.377 497.271 35.7969 496.998 36.2852C496.725 36.7734 496.588 37.2812 496.588 37.8086ZM539.186 0.396484H547.857V49H539.186V0.396484ZM563.561 9.71289C562.701 9.71289 561.92 9.5957 561.217 9.36133C560.533 9.10742 559.947 8.77539 559.459 8.36523C558.971 7.93555 558.59 7.44727 558.316 6.90039C558.062 6.33398 557.936 5.73828 557.936 5.11328C557.936 4.46875 558.062 3.87305 558.316 3.32617C558.59 2.75977 558.971 2.27148 559.459 1.86133C559.947 1.45117 560.533 1.12891 561.217 0.894531C561.92 0.640625 562.701 0.513672 563.561 0.513672C564.439 0.513672 565.221 0.640625 565.904 0.894531C566.607 1.12891 567.203 1.45117 567.691 1.86133C568.18 2.27148 568.551 2.75977 568.805 3.32617C569.078 3.87305 569.215 4.46875 569.215 5.11328C569.215 5.73828 569.078 6.33398 568.805 6.90039C568.551 7.44727 568.18 7.93555 567.691 8.36523C567.203 8.77539 566.607 9.10742 565.904 9.36133C565.221 9.5957 564.439 9.71289 563.561 9.71289ZM559.225 14.4297H567.896V49H559.225V14.4297ZM595.699 21.6367H577.975V14.4297H611.783L590.455 41.793H610.611V49H574.518L595.699 21.6367ZM617.35 38.1016C617.35 36.4414 617.711 34.9277 618.434 33.5605C619.156 32.1934 620.24 31.0215 621.686 30.0449C623.131 29.0488 624.928 28.2871 627.076 27.7598C629.244 27.2129 631.764 26.9395 634.635 26.9395C636.764 26.9395 639 27.0957 641.344 27.4082C643.707 27.7207 646.139 28.1992 648.639 28.8438C648.541 27.75 648.209 26.7441 647.643 25.8262C647.076 24.8887 646.285 24.0879 645.27 23.4238C644.273 22.7402 643.062 22.2129 641.637 21.8418C640.23 21.4707 638.629 21.2852 636.832 21.2852C635.855 21.2852 634.781 21.3438 633.609 21.4609C632.438 21.5781 631.227 21.7539 629.977 21.9883C628.727 22.2227 627.486 22.5156 626.256 22.8672C625.045 23.2188 623.912 23.6387 622.857 24.127L620.221 17.0078C621.529 16.5391 622.926 16.1094 624.41 15.7188C625.914 15.3281 627.447 14.9961 629.01 14.7227C630.572 14.4297 632.135 14.2051 633.697 14.0488C635.26 13.8926 636.773 13.8145 638.238 13.8145C644.703 13.8145 649.508 15.4648 652.652 18.7656C655.797 22.0664 657.369 27.125 657.369 33.9414V49H648.697V45.748C647.799 46.2754 646.812 46.7734 645.738 47.2422C644.684 47.7109 643.531 48.1211 642.281 48.4727C641.031 48.8242 639.684 49.0977 638.238 49.293C636.812 49.5078 635.299 49.6152 633.697 49.6152C631.002 49.6152 628.629 49.3223 626.578 48.7363C624.547 48.1504 622.848 47.3398 621.48 46.3047C620.113 45.2695 619.078 44.0586 618.375 42.6719C617.691 41.2656 617.35 39.7422 617.35 38.1016ZM626.49 37.8086C626.49 38.375 626.637 38.9219 626.93 39.4492C627.223 39.957 627.691 40.416 628.336 40.8262C628.98 41.2168 629.801 41.5391 630.797 41.793C631.812 42.0273 633.033 42.1445 634.459 42.1445C635.982 42.1445 637.457 42.0078 638.883 41.7344C640.309 41.4609 641.637 41.0996 642.867 40.6504C644.098 40.2012 645.211 39.6836 646.207 39.0977C647.203 38.5117 648.033 37.9062 648.697 37.2812V35.7578C647.369 35.3867 646.051 35.0742 644.742 34.8203C643.453 34.5664 642.213 34.3711 641.021 34.2344C639.85 34.0781 638.736 33.9707 637.682 33.9121C636.646 33.8535 635.738 33.8242 634.957 33.8242C633.336 33.8242 631.988 33.9316 630.914 34.1465C629.84 34.3613 628.971 34.6543 628.307 35.0254C627.643 35.377 627.174 35.7969 626.9 36.2852C626.627 36.7734 626.49 37.2812 626.49 37.8086ZM674.068 20.9336H665.719V14.4297H674.068V3.67773H682.74V14.4297H691.09V20.9336H682.74V49H674.068V20.9336ZM703.365 9.71289C702.506 9.71289 701.725 9.5957 701.021 9.36133C700.338 9.10742 699.752 8.77539 699.264 8.36523C698.775 7.93555 698.395 7.44727 698.121 6.90039C697.867 6.33398 697.74 5.73828 697.74 5.11328C697.74 4.46875 697.867 3.87305 698.121 3.32617C698.395 2.75977 698.775 2.27148 699.264 1.86133C699.752 1.45117 700.338 1.12891 701.021 0.894531C701.725 0.640625 702.506 0.513672 703.365 0.513672C704.244 0.513672 705.025 0.640625 705.709 0.894531C706.412 1.12891 707.008 1.45117 707.496 1.86133C707.984 2.27148 708.355 2.75977 708.609 3.32617C708.883 3.87305 709.02 4.46875 709.02 5.11328C709.02 5.73828 708.883 6.33398 708.609 6.90039C708.355 7.44727 707.984 7.93555 707.496 8.36523C707.008 8.77539 706.412 9.10742 705.709 9.36133C705.025 9.5957 704.244 9.71289 703.365 9.71289ZM699.029 14.4297H707.701V49H699.029V14.4297ZM716.754 31.7148C716.754 29.2344 717.252 26.9102 718.248 24.7422C719.264 22.5742 720.699 20.6797 722.555 19.0586C724.43 17.4375 726.686 16.1582 729.322 15.2207C731.979 14.2832 734.957 13.8145 738.258 13.8145C741.559 13.8145 744.527 14.2832 747.164 15.2207C749.82 16.1582 752.076 17.4375 753.932 19.0586C755.807 20.6797 757.242 22.5742 758.238 24.7422C759.254 26.9102 759.762 29.2344 759.762 31.7148C759.762 34.1953 759.254 36.5195 758.238 38.6875C757.242 40.8555 755.807 42.75 753.932 44.3711C752.076 45.9922 749.82 47.2715 747.164 48.209C744.527 49.1465 741.559 49.6152 738.258 49.6152C734.957 49.6152 731.979 49.1465 729.322 48.209C726.686 47.2715 724.43 45.9922 722.555 44.3711C720.699 42.75 719.264 40.8555 718.248 38.6875C717.252 36.5195 716.754 34.1953 716.754 31.7148ZM725.865 31.7148C725.865 33.1016 726.139 34.4199 726.686 35.6699C727.252 36.9004 728.062 37.9941 729.117 38.9512C730.191 39.8887 731.49 40.6406 733.014 41.207C734.557 41.7539 736.305 42.0273 738.258 42.0273C740.211 42.0273 741.949 41.7539 743.473 41.207C745.016 40.6406 746.314 39.8887 747.369 38.9512C748.443 37.9941 749.254 36.9004 749.801 35.6699C750.367 34.4199 750.65 33.1016 750.65 31.7148C750.65 30.3281 750.367 29.0098 749.801 27.7598C749.254 26.5098 748.443 25.416 747.369 24.4785C746.314 23.5215 745.016 22.7695 743.473 22.2227C741.949 21.6562 740.211 21.373 738.258 21.373C736.305 21.373 734.557 21.6562 733.014 22.2227C731.49 22.7695 730.191 23.5215 729.117 24.4785C728.062 25.416 727.252 26.5098 726.686 27.7598C726.139 29.0098 725.865 30.3281 725.865 31.7148ZM768.521 14.4297H777.193V17.3594C779.498 16.0508 781.695 15.1328 783.785 14.6055C785.895 14.0781 787.955 13.8145 789.967 13.8145C792.604 13.8145 795.045 14.2051 797.291 14.9863C799.537 15.748 801.48 16.8906 803.121 18.4141C804.762 19.9375 806.041 21.8418 806.959 24.127C807.896 26.3926 808.365 29.0195 808.365 32.0078V49H799.723V33.4141C799.723 31.5195 799.449 29.8301 798.902 28.3457C798.375 26.8418 797.604 25.582 796.588 24.5664C795.592 23.5312 794.371 22.75 792.926 22.2227C791.5 21.6758 789.898 21.4023 788.121 21.4023C787.184 21.4023 786.217 21.5 785.221 21.6953C784.244 21.8906 783.277 22.1738 782.32 22.5449C781.383 22.8965 780.475 23.3457 779.596 23.8926C778.717 24.4199 777.916 25.0254 777.193 25.709V49H768.521V14.4297Z" fill="url(#paint0_linear_3172_2781)"/>
<defs>
<linearGradient id="paint0_linear_3172_2781" x1="404" y1="-10" x2="404" y2="65" gradientUnits="userSpaceOnUse">
<stop stop-color="white"/>
<stop offset="1" stop-color="white" stop-opacity="0.5"/>
</linearGradient>
</defs>
</svg>
